<svg width="22" height="22" viewBox="0 0 22 22" version="1.1" xmlns="http://www.w3.org/2000/svg" xmlns:xlink="http://www.w3.org/1999/xlink">
    <g stroke="none" stroke-width="1" fill="none" fill-rule="evenodd" stroke-linecap="round" stroke-linejoin="round">
        <g transform="translate(-195.000000, -88.000000)" stroke="currentColor">
            <g transform="translate(196.000000, 89.000000)">
                <path d="M19.5936364,18.71 C19.7157971,18.8797617 19.7237094,19.106383 19.6136858,19.2842512 C19.5036622,19.4621193 19.2973547,19.5562311 19.0909091,19.5227273 L0.909090909,19.5227273 C0.702645339,19.5562311 0.49633778,19.4621193 0.386314183,19.2842512 C0.276290585,19.106383 0.284202861,18.8797617 0.406363636,18.71 L9.59363636,0.336363636 C9.81727273,-0.110909091 10.1827273,-0.110909091 10.4063636,0.336363636 L19.5936364,18.71 Z"></path>
                <path d="M10,13.6172727 L10,7.25363636"></path>
                <path d="M9.99181818,15.4354545 C9.93185342,15.436633 9.87487502,15.4618482 9.83367879,15.5054376 C9.79248257,15.549027 9.77052144,15.607337 9.77272727,15.6672727 C9.77759764,15.7913874 9.8794268,15.8896084 10.0036364,15.89 L10.0081818,15.89 C10.0681466,15.8888215 10.125125,15.8636063 10.1663212,15.8200169 C10.2075174,15.7764276 10.2294786,15.7181176 10.2272727,15.6581818 C10.2224781,15.5354562 10.1227975,15.4377691 10,15.4354545 L9.99545455,15.4354545"></path>
            </g>
        </g>
    </g>
</svg>