<svg xmlns="http://www.w3.org/2000/svg" style="isolation:isolate" viewBox="5.333 5.333 13.333 13.333" width="17.777" height="17.777">
    <g>
        <path d="M12 5.333A6.67 6.67 0 005.333 12 6.67 6.67 0 0012 18.667 6.67 6.67 0 0018.667 12 6.67 6.67 0 0012 5.333zM6.667 12A5.33 5.33 0 0112 6.667c1.233 0 2.367.42 3.267 1.126l-7.474 7.474A5.273 5.273 0 016.667 12zM12 17.333a5.273 5.273 0 01-3.267-1.126l7.474-7.474A5.273 5.273 0 0117.333 12 5.33 5.33 0 0112 17.333z" fill="currentColor"/>
    </g>
</svg>
