<?xml version="1.0" encoding="UTF-8"?>
<svg width="16" height="6" viewBox="0 0 16 6" version="1.1" xmlns="http://www.w3.org/2000/svg" xmlns:xlink="http://www.w3.org/1999/xlink">
    <g stroke="none" stroke-width="1" fill="none" fill-rule="evenodd">
        <g transform="translate(-320.000000, -72.000000)">
            <g transform="translate(320.000000, 67.000000)">
                <rect fill="currentColor" opacity="0" x="0" y="0" width="16" height="16"></rect>
                <g transform="translate(0.000000, 5.333333)" fill="currentColor">
                    <path d="M15.4285714,3.55555556 L0.571428571,3.55555556 C0.257142857,3.55555556 0,3.82222222 0,4.14814815 L0,4.74074074 C0,5.06666667 0.257142857,5.33333333 0.571428571,5.33333333 L15.4285714,5.33333333 C15.7428571,5.33333333 16,5.06666667 16,4.74074074 L16,4.14814815 C16,3.82222222 15.7428571,3.55555556 15.4285714,3.55555556 Z M15.4285714,0 L0.571428571,0 C0.257142857,0 0,0.266666667 0,0.592592593 L0,1.18518519 C0,1.51111111 0.257142857,1.77777778 0.571428571,1.77777778 L15.4285714,1.77777778 C15.7428571,1.77777778 16,1.51111111 16,1.18518519 L16,0.592592593 C16,0.266666667 15.7428571,0 15.4285714,0 Z"></path>
                </g>
            </g>
        </g>
    </g>
</svg>
