<svg width="26" height="25" viewBox="0 0 26 25" xmlns="http://www.w3.org/2000/svg">
	<path fill-rule="evenodd" clip-rule="evenodd" d="M10.651 7.00003C10.4525 6.99993 10.2694 6.8935 10.171 6.72115C10.0726 6.5488 10.0741 6.33695 10.175 6.16603L12.524 2.00003C12.6235 1.83175 12.8045 1.72852 13 1.72852C13.1955 1.72852 13.3765 1.83175 13.476 2.00003L15.826 6.16503C15.9268 6.33625 15.9281 6.54832 15.8296 6.72083C15.731 6.89334 15.5477 6.99987 15.349 7.00003H10.651Z" stroke="currentColor" stroke-width="1.5" stroke-linecap="round" stroke-linejoin="round"/>
	<path fill-rule="evenodd" clip-rule="evenodd" d="M7.41201 11.94C7.48761 11.7563 7.45925 11.5462 7.33766 11.3891C7.21608 11.232 7.0198 11.1519 6.82301 11.179L2.22301 11.826C2.02846 11.8529 1.86274 11.9809 1.78764 12.1624C1.71254 12.3439 1.73932 12.5516 1.85801 12.708L4.65001 16.415C4.77001 16.5735 4.96563 16.6558 5.16284 16.6306C5.36005 16.6054 5.52872 16.4766 5.60501 16.293L6.50501 14.117L7.41201 11.94Z" stroke="currentColor" stroke-width="1.5" stroke-linecap="round" stroke-linejoin="round"/>
	<path d="M6.38 14.4319C10.529 15.7319 13 18.2319 13 22.9509V24.2509" stroke="currentColor" stroke-width="1.5" stroke-linecap="round" stroke-linejoin="round"/>
	<path fill-rule="evenodd" clip-rule="evenodd" d="M18.588 11.94C18.5124 11.7563 18.5408 11.5462 18.6624 11.3891C18.784 11.232 18.9802 11.1519 19.177 11.179L23.777 11.826C23.9716 11.8529 24.1373 11.9809 24.2124 12.1624C24.2875 12.3439 24.2607 12.5516 24.142 12.708L21.35 16.415C21.23 16.5735 21.0344 16.6558 20.8372 16.6306C20.64 16.6054 20.4713 16.4766 20.395 16.293L19.495 14.117L18.588 11.94Z" stroke="currentColor" stroke-width="1.5" stroke-linecap="round" stroke-linejoin="round"/>
	<path d="M19.62 14.4319C15.471 15.7319 13 18.2319 13 22.9509V24.2509" stroke="currentColor" stroke-width="1.5" stroke-linecap="round" stroke-linejoin="round"/>
	<path d="M13 7V22.951" stroke="currentColor" stroke-width="1.5" stroke-linecap="round" stroke-linejoin="round"/>
</svg>
