<svg width="24" height="24" viewBox="0 0 24 24" version="1.1" xmlns="http://www.w3.org/2000/svg" xmlns:xlink="http://www.w3.org/1999/xlink">
    <g stroke="none" stroke-width="1" fill="none" fill-rule="evenodd" stroke-linecap="round" stroke-linejoin="round">
        <g stroke="currentColor" stroke-width="1.5">
            <g transform="translate(0.000000, 2.000000)">
                <g>
                    <path d="M12.712,14.386 L9,14.916 L9.53,11.2 L19.076,1.654 C19.6451241,1.08559043 20.4742593,0.863982409 21.2510785,1.07265354 C22.0278977,1.28132468 22.6343834,1.88857286 22.8420785,2.66565356 C23.0497736,3.44273427 22.8271241,4.27159045 22.258,4.84 L12.712,14.386 Z"></path>
                    <path d="M5.25,13 L2.25,13 C1.42157288,13 0.75,13.6715729 0.75,14.5 L0.75,17.5 C0.75,18.3284271 1.42157288,19 2.25,19 L21.75,19 C22.5784271,19 23.25,18.3284271 23.25,17.5 L23.25,14.5 C23.25,13.6715729 22.5784271,13 21.75,13 L18.75,13"></path>
                </g>
            </g>
        </g>
    </g>
</svg>
