<svg width="22" height="22" viewBox="0 0 22 22" version="1.1" xmlns="http://www.w3.org/2000/svg" xmlns:xlink="http://www.w3.org/1999/xlink">
    <g stroke="none" stroke-width="1" fill="none" fill-rule="evenodd">
        <g transform="translate(-44.000000, -593.000000)">
            <g transform="translate(43.000000, 592.000000)">
                <rect x="0" y="0" width="24" height="24"></rect>
                <g transform="translate(1.000000, 1.000000)">
					<path d="M20,5 L8,5 C8,4.263 7.595,3.625 7,3.278 L7,0 L5,0 L5,3 L2,3 C0.897,3 0,3.896 0,5 L0,20 C0,21.104 0.897,22 2,22 L6,22 C7.103,22 8,21.104 8,20 L20,20 C21.103,20 22,19.104 22,18 L22,7 C22,5.896 21.104,5 20,5 Z M2,20 L2,5 L6,5 L6,20 L2,20 Z M8,18 L8,7 L20,7 L20.001,18 L8,18 Z" fill="currentColor" fill-rule="nonzero"></path>
					<rect fill="#FFFFFF" x="2" y="5" width="4" height="15"></rect>
					<rect fill="#FFFFFF" x="8" y="7" width="12" height="11"></rect>
					<rect fill="currentColor" fill-rule="nonzero" x="10" y="8" width="8" height="2"></rect>
					<circle fill="currentColor" fill-rule="nonzero" cx="11" cy="13" r="1"></circle>
					<circle fill="currentColor" fill-rule="nonzero" cx="14" cy="13" r="1"></circle>
					<circle fill="currentColor" fill-rule="nonzero" cx="17" cy="13" r="1"></circle>
					<circle fill="currentColor" fill-rule="nonzero" cx="11" cy="16" r="1"></circle>
					<circle fill="currentColor" fill-rule="nonzero" cx="14" cy="16" r="1"></circle>
					<circle fill="currentColor" fill-rule="nonzero" cx="17" cy="16" r="1"></circle>
                </g>
            </g>
        </g>
    </g>
</svg>
