<svg width="21" height="21" viewBox="0 0 21 21" version="1.1" xmlns="http://www.w3.org/2000/svg" xmlns:xlink="http://www.w3.org/1999/xlink">
    <g stroke="none" stroke-width="1" fill="none" fill-rule="evenodd">
        <g transform="translate(-60.000000, -109.000000)">
            <g transform="translate(42.000000, 96.000000)">
                <g transform="translate(16.000000, 12.000000)">
					<rect x="0" y="0" width="24" height="24"></rect>
                    <g transform="translate(2.000000, 1.000000)" fill="currentColor" fill-rule="nonzero">
                        <path d="M20.385,4.829 L16.143,0.586 C15.387,-0.17 14.068,-0.168 13.315,0.586 L0.587,13.314 C0.208,13.69 0,14.192 0,14.727 C0,15.262 0.208,15.766 0.586,16.143 L4.828,20.385 C5.205,20.763 5.708,20.971 6.243,20.971 C6.778,20.971 7.28,20.763 7.658,20.385 L20.385,7.657 C20.762,7.279 20.97,6.777 20.97,6.243 C20.971,5.708 20.762,5.206 20.385,4.829 Z M6.244,18.971 L2,14.729 L4.122,12.608 L6.244,14.729 L7.658,13.315 L5.536,11.194 L7.658,9.071 L9.779,11.194 L11.193,9.779 L9.072,7.657 L11.194,5.536 L13.316,7.659 L14.73,6.244 L12.608,4.122 L14.729,2 L18.971,6.244 L6.244,18.971 Z"></path>
                    </g>
                </g>
            </g>
        </g>
    </g>
</svg>
