<svg xmlns="http://www.w3.org/2000/svg" width="23" height="23" viewBox="0 0 23 23">
    <g fill="none" fill-rule="evenodd">
        <g fill="currentColor" fill-rule="nonzero">
            <path d="M19.014 16.52c-.153-.218-3.829-5.353-9.014-5.353-5.185 0-8.86 5.135-9.014 5.354a.83.83 0 0 0 0 .959c.153.218 3.829 5.353 9.014 5.353 5.185 0 8.86-5.135 9.014-5.353a.83.83 0 0 0 0-.96zM10 21.168c-3.472 0-6.29-2.98-7.276-4.168.983-1.188 3.793-4.166 7.276-4.166 3.472 0 6.29 2.98 7.276 4.168-.983 1.189-3.793 4.166-7.276 4.166z"></path>
            <path d="M10 13.667A3.337 3.337 0 0 0 6.667 17 3.337 3.337 0 0 0 10 20.333 3.337 3.337 0 0 0 13.333 17 3.337 3.337 0 0 0 10 13.667zm0 5c-.92 0-1.667-.748-1.667-1.667 0-.918.748-1.667 1.667-1.667.92 0 1.667.749 1.667 1.667 0 .92-.748 1.667-1.667 1.667z"></path>
        </g>
        <path fill="currentColor"
            d="M20.502 6.007a2.49 2.49 0 0 0-1.986.998L15.955 5.98c.03-.154.048-.312.048-.474 0-.162-.018-.319-.048-.473l2.562-1.025a2.489 2.489 0 0 0 1.986.998c1.379 0 2.5-1.121 2.5-2.5s-1.121-2.5-2.5-2.5a2.502 2.502 0 0 0-2.5 2.5c0 .03.008.059.009.089l-2.78 1.112a2.484 2.484 0 0 0-1.729-.701 2.502 2.502 0 0 0-2.5 2.5c0 1.379 1.121 2.5 2.5 2.5.672 0 1.278-.27 1.729-.701l2.78 1.112c-.001.03-.009.059-.009.089 0 1.379 1.121 2.5 2.5 2.5s2.5-1.121 2.5-2.5a2.502 2.502 0 0 0-2.501-2.499z"></path>
    </g>
</svg>
