<svg xmlns="http://www.w3.org/2000/svg" width="20" height="20" viewBox="0 0 20 20">
    <g fill="none" fill-rule="evenodd">
        <path fill="currentColor" fill-rule="nonzero"
            d="M16 12c-1.2 0-2.266.541-3 1.381l-5.092-2.545a3.894 3.894 0 0 0 0-1.673L13 6.618C13.734 7.458 14.8 8 16 8c2.205 0 4-1.795 4-4 0-2.206-1.795-4-4-4s-4 1.794-4 4c0 .287.033.566.092.836L7 7.381A3.978 3.978 0 0 0 4 6c-2.205 0-4 1.794-4 4 0 2.205 1.795 4 4 4 1.2 0 2.266-.543 3-1.383l5.092 2.546c-.059.271-.092.55-.092.837 0 2.205 1.795 4 4 4s4-1.795 4-4c0-2.206-1.795-4-4-4zm0-10a2 2 0 1 1 0 4 2 2 0 0 1 0-4zM4 12a2 2 0 1 1 .001-4.001A2 2 0 0 1 4 12zm12 6a2 2 0 1 1 .001-4.001A2 2 0 0 1 16 18z"></path>
    </g>
</svg>
