<svg width="24" height="24" viewBox="0 0 24 24" version="1.1" xmlns="http://www.w3.org/2000/svg" xmlns:xlink="http://www.w3.org/1999/xlink">
    <g stroke="none" stroke-width="1" fill="none" fill-rule="evenodd" stroke-linecap="round" stroke-linejoin="round">
        <g stroke="currentColor">
			<path d="M0.854,12.646 C0.627384699,12.8722279 0.500040932,13.1792914 0.500040932,13.4995 C0.500040932,13.8197086 0.627384699,14.1267721 0.854,14.353 L6.646,20.146 C7.11816622,20.6164061 7.88183378,20.6164061 8.354,20.146 L23.146,5.353 C23.3726153,5.1267721 23.4999591,4.81970861 23.4999591,4.4995 C23.4999591,4.17929139 23.3726153,3.8722279 23.146,3.646 L20.854,1.353 C20.6276013,1.12632402 20.3203723,0.99895545 20,0.99895545 C19.6796277,0.99895545 19.3723987,1.12632402 19.146,1.353 L7.5,13 L4.854,10.353 C4.62760128,10.126324 4.32037226,9.99895545 4,9.99895545 C3.67962774,9.99895545 3.37239872,10.126324 3.146,10.353 L0.854,12.646 Z"></path>
        </g>
    </g>
</svg>
