<svg xmlns="http://www.w3.org/2000/svg" width="18" height="21" viewBox="0 0 18 21">
    <g fill="none" fill-rule="evenodd">
        <g fill="currentColor">
            <path d="M2 19c0 1.103.897 2 2 2h10c1.103 0 2-.897 2-2v-1H2v1z"></path>
            <path fill-rule="nonzero"
                d="M16.329 10.874L12 10.153V6.63c.64-.728 1-1.664 1-2.63 0-2.205-1.794-4-4-4S5 1.795 5 4c0 .966.36 1.902 1 2.63v3.523l-4.331.721A1.997 1.997 0 0 0 0 12.847V17h18v-4.153c0-.98-.702-1.809-1.671-1.973zM16 15H2v-2.153l6-.999v-6.07l-.33-.298A1.978 1.978 0 0 1 7 4c0-1.102.897-2 2-2s2 .898 2 2c0 .564-.238 1.09-.67 1.479l-.33.298v6.07l6 .999V15z"></path>
        </g>
    </g>
</svg>
