<svg width="22" height="24" viewBox="0 0 22 24" version="1.1" xmlns="http://www.w3.org/2000/svg" xmlns:xlink="http://www.w3.org/1999/xlink">
    <g stroke="none" stroke-width="1" fill="none" fill-rule="evenodd">
        <g transform="translate(-54.000000, -222.000000)" fill="currentColor" fill-rule="nonzero">
            <g transform="translate(54.000000, 222.000000)">
                <path d="M6.5,17 L0.5,17 C0.224,17 0,17.224 0,17.5 L0,23.5 C0,23.776 0.224,24 0.5,24 L6.5,24 C6.776,24 7,23.776 7,23.5 L7,17.5 C7,17.224 6.776,17 6.5,17 Z M6,23 L1,23 L1,18 L6,18 L6,23 Z M6.5,0 L0.5,0 C0.224,0 0,0.224 0,0.5 L0,6.5 C0,6.776 0.224,7 0.5,7 L3,7 L3,14.293 L1.853,13.147 C1.658,12.952 1.341,12.952 1.146,13.147 C0.951,13.342 0.951,13.659 1.146,13.854 L3.146,15.854 C3.163,15.87 3.184,15.877 3.202,15.891 C3.236,15.917 3.269,15.945 3.309,15.961 C3.37,15.987 3.435,16 3.5,16 C3.565,16 3.63,15.987 3.691,15.961 C3.747,15.938 3.795,15.903 3.839,15.863 C3.843,15.859 3.849,15.858 3.853,15.854 L5.853,13.854 C6.048,13.659 6.048,13.342 5.853,13.147 C5.658,12.952 5.341,12.952 5.146,13.147 L4,14.293 L4,7 L6.5,7 C6.776,7 7,6.776 7,6.5 L7,0.5 C7,0.224 6.776,0 6.5,0 Z M6,6 L1,6 L1,1 L6,1 L6,6 Z M21.5,5 L15.5,5 C15.224,5 15,5.224 15,5.5 L15,11.5 C15,11.776 15.224,12 15.5,12 L18,12 L18,16.5 C18,18.43 16.43,20 14.5,20 L9.707,20 L10.853,18.853 C11.048,18.658 11.048,18.341 10.853,18.146 C10.658,17.951 10.341,17.951 10.146,18.146 L8.146,20.146 C8.145,20.147 8.145,20.15 8.143,20.151 C8.08,20.215 8.045,20.294 8.024,20.375 C8.019,20.395 8.016,20.412 8.013,20.433 C7.992,20.583 8.031,20.739 8.146,20.854 L10.146,22.854 C10.244,22.951 10.372,23 10.5,23 C10.628,23 10.756,22.951 10.853,22.854 C11.048,22.659 11.048,22.342 10.853,22.147 L9.706,21 L14.5,21 C16.981,21 19,18.981 19,16.5 L19,12 L21.5,12 C21.776,12 22,11.776 22,11.5 L22,5.5 C22,5.224 21.776,5 21.5,5 Z M21,11 L16,11 L16,6 L21,6 L21,11 Z"></path>
            </g>
        </g>
    </g>
</svg>
