<svg xmlns="http://www.w3.org/2000/svg" width="20" height="20" viewBox="0 0 20 20">
    <g fill="none" fill-rule="evenodd">
        <path fill="currentColor" fill-rule="nonzero"
            d="M18.821 1.179A3.997 3.997 0 0 0 15.974 0a3.997 3.997 0 0 0-2.846 1.179L1.719 12.587l-.003.004a1.274 1.274 0 0 0-.261.461L.03 18.756a.997.997 0 0 0 .263.949l.001.001.001.001a1 1 0 0 0 .949.264l5.704-1.427a1.266 1.266 0 0 0 .465-.264L18.822 6.873A3.996 3.996 0 0 0 20 4.026a4.002 4.002 0 0 0-1.178-2.847h-.001zm-6.41 3.549l2.863 2.863-8.568 8.568-2.863-2.863 8.568-8.568zM2.375 17.626l.595-2.374 1.78 1.781-2.375.593zM17.409 2.594c.764.765.764 2.099 0 2.864l-.719.72-2.866-2.865.721-.719c.765-.764 2.099-.765 2.864 0z"></path>
    </g>
</svg>
