<?xml version="1.0" encoding="UTF-8"?>
<svg width="18px" height="18px" viewBox="0 0 18 18" version="1.1" xmlns="http://www.w3.org/2000/svg" xmlns:xlink="http://www.w3.org/1999/xlink">
    <g id="latest" stroke="none" stroke-width="1" fill="none" fill-rule="evenodd" stroke-linecap="round" stroke-linejoin="round">
        <g id="401---new-languages" transform="translate(-343.000000, -283.000000)" stroke="currentColor">
            <g id="globe" transform="translate(344.000000, 284.000000)">
                <path d="M15.6666667,7.96066667 C15.6677278,10.000712 14.8583405,11.9576239 13.4165608,13.4009039 C11.974781,14.8441839 10.018712,15.6556061 7.97866667,15.6566667 C3.71222919,15.5858125 0.300180688,12.0895637 0.333333333,7.82266667 C0.336746284,3.74705575 3.59532357,0.420671632 7.67,0.333333333 C7.78066667,0.328666667 7.89133333,0.326666667 8.00333333,0.326666667 C10.0340469,0.315651587 11.9851962,1.11546553 13.4238995,2.54866184 C14.8626028,3.98185815 15.6698937,5.92992581 15.6666667,7.96066667 Z" id="Path"></path>
                <path d="M7.67,0.333333333 C3.67,4.66666667 3.67,10.32 7.67,15.6533333" id="Path"></path>
                <path d="M8.33666667,0.333333333 C12.3366667,4.66666667 12.3366667,10.318 8.33666667,15.6513333" id="Path"></path>
                <path d="M1.59066667,3.656 L14.3466667,3.656" id="Path"></path>
                <path d="M0.335333333,7.656 L15.6666667,7.656" id="Path"></path>
                <path d="M1.32333333,11.656 L14.7233333,11.656" id="Path"></path>
            </g>
        </g>
    </g>
</svg>
