<svg width="22" height="22" viewBox="0 0 22 22" version="1.1" xmlns="http://www.w3.org/2000/svg" xmlns:xlink="http://www.w3.org/1999/xlink">
    <g stroke="none" stroke-width="1" fill="none" fill-rule="evenodd">
        <g transform="translate(-44.000000, -509.000000)">
            <g transform="translate(43.000000, 508.000000)">
                <rect x="0" y="0" width="24" height="24"></rect>
				<rect x="0" y="0" width="24" height="24"></rect>
				<g  transform="translate(1.000000, 1.000000)" fill="currentColor" fill-rule="nonzero">
					<path d="M2.514,15.227 L3.928,13.813 L3.221,13.106 C2.831,12.716 2.831,12.082 3.221,11.691 L11.707,3.206 C11.895,3.017 12.146,2.913 12.414,2.913 C12.682,2.913 12.932,3.017 13.122,3.206 L13.829,3.913 L15.242,2.5 L14.536,1.793 C13.402,0.659 11.425,0.659 10.293,1.793 L1.808,10.277 C0.638,11.447 0.638,13.35 1.808,14.52 L2.514,15.227 Z"></path>
					<path d="M20.192,7.451 L19.484,6.744 L18.07,8.158 L18.778,8.865 C18.967,9.054 19.07,9.304 19.07,9.572 C19.07,9.838 18.966,10.089 18.778,10.278 L10.293,18.764 C9.915,19.141 9.256,19.141 8.878,18.764 L8.171,18.057 L6.757,19.47 L7.464,20.177 C8.031,20.744 8.784,21.056 9.586,21.056 C10.387,21.056 11.14,20.744 11.707,20.177 L20.192,11.692 C20.758,11.126 21.07,10.373 21.07,9.572 C21.07,8.771 20.758,8.017 20.192,7.451 Z"></path>
					<rect transform="translate(15.948782, 6.035593) rotate(45.000000) translate(-15.948782, -6.035593) " x="14.9487919" y="1.03564145" width="1.99998082" height="9.9999041"></rect>
					<polygon transform="translate(6.049215, 15.933975) rotate(44.991897) translate(-6.049215, -15.933975) " points="5.04972448 10.9335228 7.04870532 10.9335228 7.04870532 20.934427 5.04972448 20.934427"></polygon>
				</g>
            </g>
        </g>
    </g>
</svg>
