<svg xmlns="http://www.w3.org/2000/svg" width="24" height="24" viewBox="0 0 24 24">
    <g fill="none" fill-rule="evenodd" stroke="currentColor" stroke-linecap="round" stroke-linejoin="round" stroke-width="1.5">
        <path d="M22.494 21.748a1.5 1.5 0 0 1-1.5 1.5h-18a1.5 1.5 0 0 1-1.5-1.5v-19.5a1.5 1.5 0 0 1 1.5-1.5h15a1.5 1.5 0 0 1 1.047.426l3 2.883c.29.282.453.67.453 1.074v16.617z"/>
        <path d="M9.49 7.085a3.954 3.954 0 0 0-.509-1.465 1.569 1.569 0 0 0-1.289-.758 1.5 1.5 0 0 0-1.325 1.284c-.074.67.099 1.343.487 1.894a42.5 42.5 0 0 0 3.936 3.971 17.631 17.631 0 0 0 5.236 2.929c.52.243 1.09.364 1.664.354a1.379 1.379 0 0 0 1.265-.98c.064-.46-.12-.918-.484-1.206a2.743 2.743 0 0 0-1.237-.536 10.778 10.778 0 0 0-5.321.565c-1.622.5-6.362 2.066-6.144 6.051.006.1-.007.762.847.666a2.583 2.583 0 0 0 1.708-1.186c1.093-1.543 1.207-3.51 1.35-5.331.21-2.083.15-4.185-.184-6.252z"/>
    </g>
</svg>
