<svg xmlns="http://www.w3.org/2000/svg" width="24" height="24" viewBox="0 0 24 24">
    <g fill="none" fill-rule="evenodd" stroke="currentColor" stroke-linecap="round" stroke-linejoin="round" stroke-width="1.5">
        <circle cx="17.25" cy="17.25" r="6"/>
        <path d="M15.375 16.125A1.875 1.875 0 1 1 17.25 18M17.25 20.25a.375.375 0 1 1 0 .75.375.375 0 0 1 0-.75M3.75 6.75h10.5M3.75 11.25h6M3.75 15.75H7.5M7.5 20.25H2.25a1.5 1.5 0 0 1-1.5-1.5V2.25a1.5 1.5 0 0 1 1.5-1.5h10.629a1.5 1.5 0 0 1 1.06.439l2.872 2.872a1.5 1.5 0 0 1 .439 1.06V7.5"/>
    </g>
</svg>
