<svg width="24" fill="none" height="24" viewBox="0 0 24 24" xmlns="http://www.w3.org/2000/svg">
	<rect x="0.750977" y="0.75" width="22.5" height="22.5" rx="1.5" stroke="currentColor" stroke-width="1.5" stroke-linecap="round" stroke-linejoin="round"/>
	<path d="M12.751 15.75H18.751" stroke="currentColor" stroke-width="1.5" stroke-linecap="round" stroke-linejoin="round"/>
	<path d="M5.25098 15.75H8.25098" stroke="currentColor" stroke-width="1.5" stroke-linecap="round" stroke-linejoin="round"/>
	<path fill-rule="evenodd" clip-rule="evenodd" d="M12.751 15.75C12.751 16.9925 11.7438 17.9998 10.5013 18C9.2588 18.0002 8.25134 16.9932 8.25098 15.7507C8.25061 14.5082 9.25747 13.5006 10.5 13.5C11.0969 13.4997 11.6694 13.7367 12.0916 14.1587C12.5138 14.5806 12.751 15.1531 12.751 15.75V15.75Z" stroke="currentColor" stroke-width="1.5" stroke-linecap="round" stroke-linejoin="round"/>
	<path d="M14.251 8.25H5.25098" stroke="currentColor" stroke-width="1.5" stroke-linecap="round" stroke-linejoin="round"/>
	<path fill-rule="evenodd" clip-rule="evenodd" d="M18.751 8.25C18.751 7.00749 17.7438 6.00018 16.5013 6C15.2588 5.99982 14.2513 7.00682 14.251 8.24933C14.2506 9.49184 15.2575 10.4994 16.5 10.5C17.7428 10.5 18.7504 9.4928 18.751 8.25Z" stroke="currentColor" stroke-width="1.5" stroke-linecap="round" stroke-linejoin="round"/>
</svg>
