<svg xmlns="http://www.w3.org/2000/svg" width="20" height="21" viewBox="0 0 20 21">
    <path fill="currentColor" fill-rule="nonzero" d="M20.002 12.66V9.327h-1.837a8.28 8.28 0 0 0-1.221-2.923l1.306-1.307-2.356-2.356-1.308 1.308a8.265 8.265 0 0 0-2.918-1.22V.994H8.334v1.835a8.268 8.268 0 0 0-2.921 1.22L4.108 2.744 1.75 5.1l1.305 1.307a8.268 8.268 0 0 0-1.22 2.921H0v3.334h1.837a8.268 8.268 0 0 0 1.22 2.921L1.75 16.891l2.358 2.355 1.305-1.306a8.281 8.281 0 0 0 2.921 1.22v1.836h3.334v-1.837a8.3 8.3 0 0 0 2.921-1.22l1.307 1.304 2.354-2.358-1.306-1.305a8.262 8.262 0 0 0 1.218-2.918h1.84v-.002zM9.999 14.326a3.333 3.333 0 1 1 0-6.666 3.333 3.333 0 0 1 0 6.666z"></path>
</svg>
