<svg width="18" height="19" version="1.1" xmlns="http://www.w3.org/2000/svg" xmlns:xlink="http://www.w3.org/1999/xlink">
    <g stroke="none" stroke-width="1" fill="none" fill-rule="evenodd">
        <g transform="translate(-565.000000, -172.000000)">
            <g transform="translate(562.000000, 169.000000)">
                <rect x="0" y="0" width="24" height="24"></rect>
                <g transform="translate(3.000000, 3.000000)" fill="currentColor">
					<path d="M2,17 C2,18.103 2.897,19 4,19 L14,19 C15.103,19 16,18.103 16,17 L16,5 L2,5 L2,17 Z M4,7 L14,7 L14.001,17 L4,17 L4,7 Z" fill-rule="nonzero"></path>
					<polygon points="12 2 12 0 6 0 6 2 0 2 0 4 18 4 18 2"></polygon>
					<rect x="6" y="9" width="2" height="6"></rect>
					<rect x="10" y="9" width="2" height="6"></rect>
                </g>
            </g>
        </g>
    </g>
</svg>
