<svg xmlns="http://www.w3.org/2000/svg" width="20" height="12" viewBox="0 0 20 12">
    <g fill="none" fill-rule="evenodd">
        <g fill="currentColor" fill-rule="nonzero">
            <path d="M19.014 5.52C18.861 5.303 15.185.168 10 .168 4.815.167 1.14 5.302.986 5.52a.83.83 0 0 0 0 .959c.153.218 3.829 5.353 9.014 5.353 5.185 0 8.86-5.135 9.014-5.353a.83.83 0 0 0 0-.96zM10 10.168c-3.472 0-6.29-2.98-7.276-4.168C3.707 4.811 6.517 1.833 10 1.833c3.472 0 6.29 2.98 7.276 4.168-.983 1.189-3.793 4.166-7.276 4.166z"></path>
            <path d="M10 2.667A3.337 3.337 0 0 0 6.667 6 3.337 3.337 0 0 0 10 9.333 3.337 3.337 0 0 0 13.333 6 3.337 3.337 0 0 0 10 2.667zm0 5c-.92 0-1.667-.748-1.667-1.667 0-.918.748-1.667 1.667-1.667.92 0 1.667.749 1.667 1.667 0 .92-.748 1.667-1.667 1.667z"></path>
        </g>
    </g>
</svg>
